<?xml version="1.0" standalone="no"?>
<!DOCTYPE svg PUBLIC "-//W3C//DTD SVG 20010904//EN"
 "http://www.w3.org/TR/2001/REC-SVG-20010904/DTD/svg10.dtd">
<svg version="1.0" xmlns="http://www.w3.org/2000/svg"
 width="512.000000pt" height="512.000000pt" viewBox="0 0 512.000000 512.000000"
 preserveAspectRatio="xMidYMid meet">
<metadata>
Created by potrace 1.11, written by Peter Selinger 2001-2013
</metadata>
<g transform="translate(0.000000,512.000000) scale(0.100000,-0.100000)"
fill="#000000" stroke="none">
<path d="M2692 5111 c-6 -3 -31 -51 -57 -106 -25 -55 -53 -113 -62 -128 -18
-33 -17 -34 25 -42 25 -4 34 -1 44 15 23 36 112 25 113 -14 0 -5 20 -11 43
-13 51 -5 52 -25 -10 164 -34 104 -44 122 -63 126 -13 2 -28 1 -33 -2z m26
-128 c0 -10 3 -26 7 -35 6 -14 2 -18 -18 -18 -24 0 -25 1 -14 35 11 37 26 47
25 18z"/>
<path d="M2205 5087 c-9 -4 -14 -11 -11 -15 2 -4 7 -32 10 -62 14 -119 17
-146 21 -165 2 -11 4 -23 4 -27 1 -7 67 -4 121 5 30 5 38 17 31 44 -7 25 -11
27 -50 24 -31 -2 -42 1 -40 11 3 15 -10 142 -18 175 -5 23 -37 28 -68 10z"/>
<path d="M2948 5063 c-55 -34 -42 -105 25 -148 36 -23 46 -50 22 -59 -12 -4
-19 0 -22 15 -3 11 -17 25 -30 30 -43 16 -53 12 -53 -25 0 -47 46 -86 100 -86
52 0 68 8 85 41 25 48 19 69 -37 121 -42 38 -50 50 -38 57 17 12 30 5 30 -15
0 -8 10 -14 24 -14 13 0 32 -3 40 -6 13 -5 16 0 14 26 -5 67 -96 103 -160 63z"/>
<path d="M1945 5040 c-2 -3 -8 -41 -15 -85 -6 -44 -13 -91 -15 -105 -2 -14 -7
-45 -10 -68 l-6 -44 33 7 c33 7 61 31 53 45 -3 4 16 13 41 19 40 10 48 10 58
-5 10 -13 21 -15 54 -9 l41 7 -46 66 c-26 37 -59 83 -75 103 -15 20 -28 40
-28 44 0 25 -72 46 -85 25z m75 -130 c12 -23 6 -40 -16 -40 -10 0 -14 9 -12
30 3 35 13 38 28 10z"/>
<path d="M3184 4952 c-14 -48 -32 -109 -41 -135 -8 -27 -13 -50 -12 -52 12
-11 144 -44 150 -38 4 5 10 20 14 34 6 23 3 27 -22 32 -40 9 -55 21 -48 40 6
14 11 14 45 2 l39 -14 10 32 c11 29 5 43 -19 48 -51 9 -53 10 -45 31 5 13 13
14 46 5 22 -5 42 -7 45 -5 10 10 9 63 -1 64 -5 0 -17 3 -25 6 -8 3 -36 12 -62
21 l-48 16 -26 -87z"/>
<path d="M1730 4980 c-8 -5 -23 -11 -32 -14 -15 -4 -14 -12 12 -73 16 -37 27
-69 25 -71 -2 -2 -34 19 -72 47 -54 41 -73 50 -93 46 -37 -9 -42 -19 -29 -51
7 -16 13 -31 14 -34 1 -3 5 -14 10 -25 4 -11 22 -54 39 -96 l32 -77 29 15 c17
9 31 17 32 18 2 1 -9 30 -23 64 -14 35 -22 66 -19 69 3 4 9 2 13 -4 4 -5 23
-21 42 -34 19 -14 44 -32 54 -42 19 -17 59 -16 80 2 7 7 -77 245 -93 261 -3 4
-13 3 -21 -1z"/>
<path d="M3454 4923 c2 -21 8 -56 11 -78 6 -36 4 -41 -22 -57 -15 -9 -48 -31
-73 -49 l-45 -32 40 -17 c40 -17 40 -17 75 11 44 37 55 36 57 -4 4 -57 12 -72
44 -84 33 -13 54 -9 44 7 -6 10 -13 46 -21 115 -5 40 -4 40 56 79 33 21 60 40
60 42 0 2 -14 11 -30 19 -35 18 -56 14 -88 -16 -12 -11 -23 -15 -23 -9 -1 5
-3 15 -4 20 -1 6 -3 20 -4 33 -1 16 -12 28 -36 40 -47 23 -48 23 -41 -20z"/>
<path d="M1308 4789 c-100 -52 -98 -207 3 -257 26 -13 51 -18 72 -15 18 3 38
6 44 7 26 4 75 49 89 82 18 44 17 81 -4 124 -37 74 -126 101 -204 59z m96 -59
c74 -28 59 -142 -20 -142 -62 0 -98 88 -54 132 22 22 37 24 74 10z"/>
<path d="M3723 4737 c-65 -113 -68 -121 -55 -165 23 -75 130 -104 180 -49 10
12 35 49 54 82 63 106 61 100 23 118 l-34 16 -32 -52 c-78 -127 -77 -126 -99
-120 -31 8 -25 38 25 120 25 40 45 79 45 86 0 10 -44 38 -59 37 -4 -1 -25 -33
-48 -73z"/>
<path d="M1077 4638 c-26 -19 -35 -43 -19 -50 4 -1 39 -47 77 -100 38 -54 74
-98 80 -98 5 1 21 10 34 20 l23 20 -63 88 c-34 48 -72 99 -84 113 l-21 26 -27
-19z"/>
<path d="M2654 4178 l1 -423 340 -1 c187 0 343 1 347 3 9 5 -67 191 -123 300
-95 184 -225 350 -346 442 -43 33 -149 85 -194 96 l-25 6 0 -423z"/>
<path d="M4090 4588 c-8 -5 -68 -39 -132 -77 l-116 -67 31 -26 c26 -20 37 -23
54 -15 32 14 85 -28 79 -63 -4 -19 3 -30 27 -47 17 -12 32 -21 33 -20 4 4 84
276 84 284 -1 17 -45 40 -60 31z m-30 -107 c0 -5 -6 -21 -14 -35 -12 -23 -15
-24 -26 -11 -11 13 -10 19 5 35 19 21 35 26 35 11z"/>
<path d="M2362 4565 c-175 -82 -339 -265 -468 -525 -55 -110 -114 -252 -114
-273 0 -9 76 -12 330 -12 l330 0 0 95 c1 52 1 102 1 110 1 8 0 117 -1 241 -1
124 0 230 1 235 1 5 1 42 0 82 -1 50 -5 72 -13 72 -7 0 -37 -11 -66 -25z"/>
<path d="M950 4542 c-9 -9 -37 -34 -62 -56 l-47 -38 21 -29 c19 -26 23 -27 38
-14 18 16 40 20 40 8 1 -5 29 -39 64 -77 l63 -69 26 19 c15 10 27 23 27 27 0
5 -29 43 -65 85 -63 73 -75 92 -56 92 18 0 21 33 5 51 -21 23 -34 23 -54 1z"/>
<path d="M1865 4489 c-222 -82 -440 -208 -620 -359 -39 -33 -224 -218 -250
-250 -65 -81 -85 -109 -85 -117 0 -4 143 -8 317 -8 l318 0 41 110 c59 160 136
329 155 340 5 4 7 11 4 16 -4 5 -1 9 4 9 6 0 11 5 11 10 0 14 91 150 140 210
36 44 54 71 48 69 -2 0 -39 -14 -83 -30z"/>
<path d="M3212 4458 c53 -63 118 -153 118 -163 0 -3 13 -25 28 -48 42 -63 125
-239 166 -352 20 -55 40 -109 45 -120 8 -19 18 -20 329 -20 213 0 318 3 314
10 -57 99 -281 326 -431 439 -58 43 -112 81 -120 84 -9 3 -34 18 -56 33 -92
62 -375 189 -421 189 -10 0 -1 -17 28 -52z"/>
<path d="M4203 4334 c-51 -52 -93 -99 -93 -105 0 -5 24 -32 53 -59 l52 -49 25
25 25 24 -28 24 c-15 13 -27 26 -27 30 0 3 26 32 58 63 90 91 89 89 62 118
-13 14 -26 25 -29 25 -3 -1 -48 -44 -98 -96z"/>
<path d="M707 4312 c-9 -10 -17 -24 -17 -31 0 -7 28 -71 62 -142 l62 -130 29
29 c24 24 27 33 18 49 -15 30 36 87 71 78 17 -4 30 1 48 20 14 15 20 29 14 34
-5 5 -63 30 -129 56 -66 26 -125 49 -131 51 -5 3 -18 -4 -27 -14z m117 -93
c21 -10 23 -15 15 -30 -11 -21 -29 -25 -29 -7 0 6 -7 20 -17 30 -18 21 -6 23
31 7z"/>
<path d="M4419 4223 c-24 -21 -57 -49 -73 -63 -16 -14 -44 -39 -63 -55 l-33
-30 26 -28 c26 -28 26 -28 48 -10 11 11 57 50 101 88 44 38 81 73 83 80 1 6
-8 21 -21 34 l-24 22 -44 -38z"/>
<path d="M4538 4122 c-24 -16 -25 -19 -13 -42 13 -24 11 -26 -53 -73 -37 -26
-75 -53 -85 -60 -17 -11 -17 -14 6 -44 l24 -32 81 59 c45 33 86 60 91 60 6 0
15 -9 21 -20 10 -20 12 -20 35 -3 13 10 25 22 25 27 0 10 -71 109 -82 114 -5
2 -8 10 -8 18 0 18 -9 18 -42 -4z"/>
<path d="M538 4113 c-31 -36 -28 -41 37 -82 36 -23 65 -43 65 -45 0 -3 -11 -2
-129 5 -49 3 -56 0 -75 -24 -23 -31 -26 -26 59 -84 22 -15 63 -45 92 -65 56
-41 73 -46 73 -23 0 8 4 15 9 15 5 0 11 7 15 15 3 10 -13 26 -49 51 -30 20
-57 39 -60 44 -2 4 36 5 84 3 84 -4 90 -3 105 19 9 12 16 25 16 29 0 6 -213
159 -222 159 -3 0 -12 -8 -20 -17z"/>
<path d="M4689 3908 c-6 -12 -16 -27 -21 -32 -4 -6 -24 -32 -44 -59 -19 -26
-53 -56 -74 -67 -22 -11 -40 -23 -40 -26 0 -3 9 -19 21 -35 l20 -29 42 24 c39
23 79 31 200 38 20 1 37 3 37 5 0 1 -7 18 -16 37 -16 32 -19 34 -57 29 -23 -2
-44 -5 -47 -5 -22 -2 -20 6 9 36 19 19 31 41 29 48 -3 7 -6 18 -8 23 -3 14
-21 35 -31 35 -5 0 -14 -10 -20 -22z"/>
<path d="M375 3820 c-26 -10 -45 -33 -79 -95 -32 -58 -35 -54 79 -112 39 -19
75 -38 80 -42 6 -4 22 -12 37 -19 26 -11 29 -9 43 18 19 37 20 36 -15 50 -39
16 -38 25 3 28 52 4 62 10 80 47 19 40 15 42 -55 26 -22 -5 -38 -5 -38 0 0 5
0 11 0 14 1 15 -33 66 -49 74 -27 15 -64 19 -86 11z m49 -76 c16 -6 21 -30 10
-58 -5 -14 -9 -14 -35 0 -33 16 -33 18 -19 45 11 20 19 23 44 13z"/>
<path d="M221 3562 c-8 -15 -51 -123 -51 -129 0 -3 262 -104 264 -101 9 15 56
141 54 143 -9 8 -48 25 -56 25 -5 0 -14 -18 -21 -40 -10 -36 -14 -39 -31 -30
-19 10 -19 13 -6 45 16 36 10 47 -29 59 -17 5 -23 0 -34 -29 -8 -23 -19 -35
-31 -35 -18 0 -18 2 -4 42 8 22 13 42 12 43 -7 6 -47 25 -52 25 -3 0 -10 -8
-15 -18z"/>
<path d="M778 3542 c-38 -7 -187 -380 -212 -532 -3 -19 -8 -46 -11 -60 -12
-59 -25 -150 -30 -217 l-5 -72 427 2 428 2 1 60 c1 52 9 172 19 285 6 63 16
144 27 205 5 33 11 69 13 80 8 54 17 102 21 117 3 10 7 28 10 40 10 56 13 69
19 78 4 6 -9 10 -32 11 -152 2 -662 3 -675 1z"/>
<path d="M1715 3535 c-7 -5 -22 -53 -34 -105 -28 -123 -30 -130 -36 -176 -3
-21 -10 -64 -15 -94 -5 -30 -12 -80 -16 -110 -3 -30 -8 -71 -10 -90 -3 -19 -7
-95 -11 -167 l-5 -133 426 0 426 0 1 163 c0 89 0 169 0 177 1 27 0 474 -1 504
0 17 -3 32 -5 34 -9 10 -708 7 -720 -3z"/>
<path d="M2684 3542 l-31 -3 1 -437 1 -437 438 -3 c346 -2 437 0 438 10 4 60
-10 255 -26 383 -2 17 -6 53 -10 80 -3 28 -8 61 -11 75 -30 160 -36 190 -54
260 -6 25 -12 51 -12 58 -1 6 -6 12 -12 13 -34 2 -696 3 -722 1z"/>
<path d="M3653 3542 c-19 -3 -21 -6 -13 -23 6 -10 9 -19 6 -19 -3 0 0 -15 5
-32 5 -18 12 -49 15 -68 3 -19 10 -52 15 -72 5 -20 9 -40 8 -45 -1 -4 0 -11 1
-15 5 -15 6 -24 14 -92 4 -38 10 -81 12 -94 9 -49 27 -279 28 -364 l1 -58 428
0 428 0 -6 68 c-7 92 -13 142 -20 172 -3 14 -8 41 -11 60 -15 97 -77 301 -123
405 -43 97 -86 175 -96 176 -33 3 -674 3 -692 1z"/>
<path d="M4802 3455 c-67 -23 -125 -45 -128 -47 -11 -11 33 -123 61 -155 23
-26 40 -35 73 -39 53 -6 123 23 149 62 22 35 22 117 0 161 -9 17 -14 33 -11
35 2 3 -1 10 -8 15 -9 7 -50 -2 -136 -32z m103 -86 c14 -61 -84 -106 -126 -57
-29 33 -23 42 39 65 75 28 79 28 87 -8z"/>
<path d="M143 3347 c-4 -7 -8 -16 -10 -22 -6 -28 -13 -54 -27 -98 -14 -48 -14
-48 10 -58 34 -12 44 -11 44 5 0 25 24 36 56 26 16 -6 59 -19 96 -29 l68 -19
10 36 c5 20 8 37 7 38 -1 1 -36 12 -77 23 -123 36 -131 40 -119 63 6 11 9 21
7 22 -27 17 -58 24 -65 13z"/>
<path d="M4755 3141 c11 -56 18 -70 38 -73 12 -2 22 -7 21 -13 0 -5 2 -24 6
-41 6 -25 3 -35 -12 -49 -13 -10 -17 -22 -13 -33 4 -9 8 -22 9 -29 4 -26 16
-22 112 41 142 93 144 94 144 121 0 28 -21 42 -76 49 -21 3 -82 14 -136 24
-87 17 -96 17 -93 3z m168 -108 c-20 -16 -29 -19 -35 -10 -16 24 -7 34 28 33
l35 -1 -28 -22z"/>
<path d="M66 3058 c-3 -17 -5 -32 -3 -34 4 -4 64 -15 105 -19 18 -1 35 -5 38
-8 3 -2 -32 -20 -78 -39 -74 -31 -83 -38 -89 -66 -8 -38 -12 -36 156 -58 22
-3 54 -9 70 -13 43 -11 55 -4 55 34 0 32 -1 33 -52 40 -95 13 -97 18 -17 50
83 34 99 47 99 81 0 27 5 25 -143 48 -134 22 -133 22 -141 -16z"/>
<path d="M4995 2852 c-56 -33 -93 -48 -125 -51 -25 -1 -48 -5 -51 -7 -5 -3 -5
-33 0 -66 1 -3 27 -6 59 -6 41 1 80 -8 141 -30 46 -18 85 -32 86 -32 5 0 -2
67 -8 76 -4 7 -28 17 -54 24 l-48 12 45 22 c51 24 59 32 55 55 -2 9 -4 24 -4
34 -1 23 -5 22 -96 -31z"/>
<path d="M29 2742 c0 -9 -2 -25 -4 -35 -6 -31 13 -34 230 -41 l50 -1 3 38 c3
33 1 37 -20 38 -151 6 -207 9 -230 14 -22 3 -28 0 -29 -13z"/>
<path d="M6 2403 c6 -77 14 -146 18 -173 3 -14 7 -44 10 -67 3 -22 8 -52 10
-65 3 -12 8 -34 10 -48 27 -146 108 -391 179 -545 95 -204 273 -479 402 -620
120 -130 225 -232 310 -300 28 -22 51 -43 53 -47 2 -5 10 -8 17 -8 7 0 15 -4
17 -8 2 -4 32 -29 68 -54 175 -123 407 -242 609 -312 67 -24 204 -66 225 -70
6 -1 38 -8 71 -15 33 -8 67 -15 75 -16 8 -2 15 -4 15 -5 0 -1 16 -3 35 -5 19
-3 44 -6 56 -9 100 -21 504 -29 639 -12 39 4 84 10 100 11 32 4 53 8 160 29
424 85 879 318 1194 611 89 83 207 207 252 265 24 30 46 57 49 60 3 3 32 41
63 85 31 44 61 85 67 92 5 7 10 17 10 22 0 5 7 17 16 25 17 17 171 318 193
376 17 45 95 273 100 291 7 27 40 174 45 204 3 17 8 41 11 54 2 12 7 44 10 70
3 25 8 64 10 86 3 22 7 64 9 93 l3 52 -173 0 -174 0 -1 -32 c0 -18 -2 -46 -4
-63 -7 -56 -17 -130 -20 -150 -2 -11 -7 -40 -10 -65 -17 -112 -142 -484 -169
-502 -6 -4 -8 -8 -4 -8 18 0 -139 -268 -220 -375 -12 -16 -26 -34 -30 -40 -72
-97 -218 -248 -322 -336 -35 -30 -70 -60 -78 -66 -20 -19 -200 -137 -262 -173
-194 -110 -474 -214 -660 -245 -19 -3 -60 -10 -90 -15 -110 -18 -188 -24 -335
-24 -179 0 -265 8 -425 38 -354 66 -684 221 -980 460 -80 65 -256 238 -305
301 -16 21 -34 43 -40 50 -59 64 -197 289 -262 425 -32 67 -118 298 -127 341
-3 13 -10 44 -17 69 -19 77 -36 169 -45 245 -3 28 -7 59 -9 70 -1 11 -3 37 -4
58 l-1 37 -174 0 -174 0 4 -47z"/>
<path d="M526 2388 c3 -35 7 -74 10 -88 3 -14 7 -41 10 -60 2 -19 6 -46 9 -60
3 -14 7 -34 9 -45 24 -125 101 -345 166 -470 l36 -70 354 -1 c195 -1 358 1
363 3 4 2 3 12 -2 21 -5 9 -11 33 -14 52 -3 19 -10 55 -15 80 -12 51 -18 85
-27 150 -3 25 -8 56 -10 70 -14 75 -37 330 -38 433 l-1 47 -427 0 -427 0 4
-62z"/>
<path d="M1594 2333 c4 -65 8 -134 10 -153 2 -19 7 -62 10 -96 4 -33 9 -72 12
-85 3 -13 7 -37 9 -54 8 -70 33 -198 50 -255 7 -25 12 -47 12 -50 0 -3 3 -14
7 -25 6 -21 12 -21 371 -21 l365 0 0 216 c-1 119 0 220 1 226 1 5 1 100 0 212
l-1 202 -426 0 -426 0 6 -117z"/>
<path d="M2654 2023 l1 -428 372 -1 c205 0 377 2 382 5 5 4 12 20 15 36 2 17
5 30 6 30 2 0 4 9 5 20 2 11 10 50 19 87 15 64 35 174 41 228 1 14 6 52 10 85
11 88 22 214 27 325 2 42 26 40 -440 40 l-439 0 1 -427z"/>
<path d="M3749 2448 c-1 -4 -6 -63 -13 -188 -4 -63 -9 -126 -11 -140 -1 -14
-6 -50 -9 -80 -4 -30 -14 -93 -22 -140 -8 -47 -17 -98 -19 -115 -4 -26 -26
-132 -36 -175 -4 -13 41 -15 355 -15 l360 0 33 63 c66 126 139 330 169 477 7
35 15 79 19 105 2 14 6 41 9 60 3 19 8 61 11 93 l5 57 -425 0 c-234 0 -425 -1
-426 -2z"/>
<path d="M928 1380 c-26 -5 -26 -5 33 -80 235 -295 579 -541 919 -656 71 -24
83 -23 54 3 -49 45 -145 188 -217 324 -44 82 -129 282 -157 367 -11 35 -18 42
-39 43 -123 4 -573 3 -593 -1z"/>
<path d="M1788 1382 c-14 -3 -12 -14 13 -80 134 -352 366 -653 560 -728 24 -9
49 -21 56 -26 7 -5 14 -5 18 2 3 5 6 110 5 233 -1 122 -2 229 -1 237 2 82 -1
355 -4 358 -5 6 -622 9 -647 4z"/>
<path d="M2674 1382 c-21 -3 -21 -4 -21 -423 l0 -421 31 6 c34 7 139 56 176
83 13 10 63 56 110 103 87 86 189 228 250 350 40 79 129 293 124 299 -4 5
-639 7 -670 3z"/>
<path d="M3599 1382 c-22 -3 -29 -13 -49 -70 -13 -37 -28 -78 -33 -92 -6 -14
-11 -27 -12 -30 -58 -157 -209 -419 -304 -530 -17 -19 -29 -36 -27 -37 7 -7
176 60 281 112 233 114 428 259 610 456 60 65 145 172 145 184 0 9 -538 15
-611 7z"/>
</g>
</svg>
