<?xml version="1.0" standalone="no"?>
<!DOCTYPE svg PUBLIC "-//W3C//DTD SVG 20010904//EN"
 "http://www.w3.org/TR/2001/REC-SVG-20010904/DTD/svg10.dtd">
<svg version="1.0" xmlns="http://www.w3.org/2000/svg"
 width="951.000000pt" height="951.000000pt" viewBox="0 0 951.000000 951.000000"
 preserveAspectRatio="xMidYMid meet">
<metadata>
Created by potrace 1.11, written by Peter Selinger 2001-2013
</metadata>
<g transform="translate(0.000000,951.000000) scale(0.100000,-0.100000)"
fill="#000000" stroke="none">
<path d="M4956 9428 c-19 -40 -57 -122 -86 -183 -94 -197 -118 -253 -112 -259
3 -3 38 -6 78 -6 l72 0 12 34 11 35 77 -5 c42 -3 82 -6 88 -9 6 -2 14 -20 18
-39 l7 -36 62 -1 c34 0 70 -2 80 -4 11 -2 17 1 14 8 -2 7 -42 127 -88 267 -46
140 -84 256 -85 258 0 1 -26 4 -57 7 l-57 5 -34 -72z m107 -235 l7 -33 -45 0
-44 0 25 67 c13 38 24 70 25 73 2 8 25 -71 32 -107z"/>
<path d="M4112 9462 l-34 -3 7 -72 c4 -40 8 -83 10 -97 1 -14 6 -50 9 -80 32
-272 34 -280 49 -275 7 2 41 6 77 9 84 8 149 16 178 22 23 5 23 8 17 62 -7 61
-12 75 -24 68 -4 -3 -38 -8 -74 -11 l-67 -6 -1 38 c0 21 -2 47 -4 58 -2 11 -6
40 -9 65 -6 59 -18 161 -22 180 -1 8 -3 23 -3 33 -1 18 -6 19 -109 9z"/>
<path d="M5517 9425 c-51 -18 -85 -51 -98 -96 -23 -74 11 -137 104 -196 57
-36 76 -59 70 -82 -7 -26 -48 -38 -68 -21 -8 7 -15 25 -15 41 0 16 -3 29 -7
30 -5 0 -17 2 -28 4 -101 15 -104 15 -109 -3 -2 -9 -3 -28 -2 -42 2 -14 4 -33
5 -42 2 -27 60 -87 99 -104 59 -24 136 -25 185 0 80 40 111 155 59 221 -12 15
-50 48 -85 75 -71 54 -83 72 -61 94 19 20 58 6 62 -23 2 -13 13 -23 30 -27 15
-3 45 -9 67 -14 21 -5 41 -7 43 -5 3 2 4 22 4 44 -1 67 -31 108 -105 141 -49
23 -97 24 -150 5z"/>
<path d="M3658 9374 c-49 -15 -51 -17 -64 -109 -3 -22 -11 -80 -19 -130 -8
-49 -17 -112 -21 -140 -3 -27 -8 -57 -9 -65 -2 -9 -6 -42 -10 -73 l-7 -58 28
7 c126 32 118 28 125 67 7 43 9 45 35 50 10 2 46 10 78 17 45 11 61 11 64 2 2
-6 11 -21 20 -32 17 -20 18 -21 87 -5 38 9 71 18 73 20 2 2 -27 47 -65 100
-37 53 -75 107 -83 119 -75 109 -174 246 -179 245 -3 0 -27 -7 -53 -15z m90
-251 c18 -31 29 -59 25 -63 -4 -5 -23 -11 -41 -15 l-33 -7 3 71 c1 39 5 71 8
71 3 0 20 -26 38 -57z"/>
<path d="M5955 9338 c-5 -15 -52 -173 -104 -353 -21 -71 -36 -133 -32 -136 10
-11 261 -81 273 -77 11 4 42 107 35 115 -3 2 -35 12 -72 23 -37 11 -69 21 -71
23 -6 6 17 67 24 67 4 0 36 -9 72 -20 49 -15 66 -17 72 -7 9 15 31 107 27 111
-2 2 -33 12 -69 23 -62 18 -65 20 -62 48 2 17 5 31 6 33 2 1 33 -7 70 -19 64
-19 99 -20 94 -2 -1 4 4 27 12 51 7 23 10 45 7 48 -6 6 -255 83 -270 84 -4 0
-10 -6 -12 -12z"/>
<path d="M3183 9238 c-29 -11 -53 -25 -53 -30 0 -5 21 -60 46 -121 25 -62 50
-122 55 -135 6 -16 -34 10 -134 85 l-142 108 -50 -18 c-28 -10 -53 -22 -57
-26 -4 -4 35 -115 86 -246 105 -266 92 -251 178 -212 l47 22 -35 85 c-71 171
-75 182 -62 174 7 -4 65 -47 128 -94 63 -47 121 -89 128 -94 12 -7 97 18 116
35 11 10 -174 489 -189 488 -5 -1 -34 -10 -62 -21z"/>
<path d="M6400 9212 c0 -12 33 -197 46 -254 5 -26 -2 -32 -130 -115 -74 -48
-135 -92 -135 -96 -1 -4 16 -15 37 -23 20 -9 51 -23 69 -31 32 -15 32 -15 112
47 45 33 81 60 82 58 0 -2 2 -14 4 -28 3 -14 10 -58 16 -99 l12 -74 46 -19
c25 -10 54 -23 63 -28 33 -18 39 -12 33 33 -3 23 -10 58 -15 77 -5 19 -12 55
-15 80 -4 25 -10 62 -14 82 l-9 37 124 82 c69 45 123 83 121 85 -1 2 -35 17
-75 34 l-73 31 -60 -47 c-33 -25 -63 -44 -66 -40 -3 3 -7 20 -10 38 -2 18 -5
42 -7 53 -3 11 -5 29 -5 41 -1 15 -18 27 -76 51 -41 18 -75 29 -75 25z"/>
<path d="M2498 8926 c-94 -25 -176 -103 -199 -190 -6 -23 -9 -68 -6 -101 12
-162 139 -265 299 -243 105 14 173 61 217 149 105 211 -84 445 -311 385z m141
-154 c33 -25 61 -80 61 -122 0 -69 -61 -130 -130 -130 -105 0 -176 134 -119
226 11 19 21 34 22 34 1 0 20 6 41 14 44 15 85 8 125 -22z"/>
<path d="M6915 8795 c-100 -168 -115 -201 -115 -250 0 -79 62 -155 151 -185
49 -17 69 -18 126 -5 42 10 92 66 160 181 37 63 78 132 90 152 12 20 22 40 23
43 0 4 -27 23 -60 42 l-59 36 -98 -162 c-107 -177 -124 -191 -171 -146 -32 29
-27 44 78 219 l89 149 -59 36 c-31 19 -60 35 -63 35 -3 0 -44 -65 -92 -145z"/>
<path d="M1997 8610 c-36 -26 -55 -46 -50 -53 7 -12 181 -254 259 -359 l41
-56 57 40 c31 22 56 42 56 45 0 4 -240 338 -288 401 l-18 23 -57 -41z"/>
<path d="M4929 8533 c-5 -54 0 -1546 5 -1551 4 -4 293 -7 642 -7 707 0 652 -6
619 67 -8 18 -37 90 -64 159 -61 156 -177 394 -251 518 -250 417 -543 693
-842 795 -78 27 -107 32 -109 19z"/>
<path d="M7541 8489 c-45 -27 -85 -49 -88 -49 -3 0 -17 -8 -31 -19 -15 -10
-49 -31 -77 -46 -123 -68 -205 -117 -204 -123 0 -4 25 -27 56 -51 l56 -43 36
20 37 21 67 -53 c36 -29 64 -56 61 -58 -2 -3 -9 -19 -14 -37 -8 -30 -6 -33 51
-77 33 -25 62 -45 63 -43 2 2 27 85 55 184 29 99 56 191 61 205 5 14 17 53 26
88 19 70 23 59 -47 112 l-26 19 -82 -50z m-17 -210 c-14 -35 -27 -65 -28 -66
-1 -1 -16 11 -34 27 l-32 28 57 41 c31 22 58 39 60 37 2 -1 -9 -32 -23 -67z"/>
<path d="M4455 8509 c-128 -52 -198 -92 -305 -174 -229 -177 -438 -448 -625
-810 -50 -99 -151 -324 -161 -360 -1 -5 -18 -49 -37 -97 -19 -49 -34 -89 -34
-89 1 -1 280 -2 620 -3 l617 -1 1 45 c0 59 0 1401 0 1463 -1 54 -4 55 -76 26z"/>
<path d="M1778 8443 c-24 -21 -71 -60 -103 -88 -33 -27 -72 -61 -88 -75 l-28
-25 43 -49 43 -48 35 31 c19 17 37 31 40 31 3 0 61 -65 129 -145 68 -80 128
-145 135 -145 6 1 32 20 58 43 l47 42 -129 152 -130 152 35 28 c19 15 35 33
35 38 -1 6 -18 29 -39 53 l-38 44 -45 -39z"/>
<path d="M3475 8341 c-574 -211 -1055 -526 -1469 -962 -142 -150 -340 -393
-324 -400 2 -1 269 -2 595 -3 l592 -1 37 105 c184 522 421 959 685 1263 22 26
35 47 28 47 -8 -1 -72 -22 -144 -49z"/>
<path d="M5953 8301 c248 -298 468 -705 637 -1181 l51 -145 594 0 c329 0 595
4 595 9 0 9 -137 186 -207 267 -82 94 -345 352 -433 425 -372 308 -733 514
-1184 675 -60 22 -113 39 -118 39 -4 0 25 -40 65 -89z"/>
<path d="M7820 8062 c-91 -92 -173 -177 -182 -188 -17 -20 -15 -23 85 -122
l104 -102 47 46 48 46 -55 52 -56 52 140 142 140 141 -49 51 c-27 27 -51 50
-53 50 -3 0 -79 -76 -169 -168z"/>
<path d="M1307 8001 l-37 -39 59 -129 c32 -70 87 -186 121 -258 l61 -130 50
54 c53 58 57 70 33 106 -15 23 -14 25 43 85 l59 62 36 -15 37 -16 51 56 c28
30 49 57 47 59 -3 4 -514 204 -520 204 -1 0 -20 -18 -40 -39z m270 -195 c1 -1
-11 -16 -26 -35 l-27 -33 -37 62 c-20 34 -37 63 -37 66 0 3 117 -52 127 -60z"/>
<path d="M8110 7759 c-242 -208 -221 -178 -170 -238 24 -28 46 -51 50 -51 4 0
95 76 203 169 l195 169 -41 50 c-23 28 -46 51 -52 51 -5 1 -89 -67 -185 -150z"/>
<path d="M8440 7669 c-14 -12 -34 -27 -44 -35 -19 -13 -18 -14 7 -48 15 -19
27 -39 27 -43 0 -5 -70 -59 -155 -121 -85 -62 -155 -116 -155 -119 0 -3 18
-30 41 -60 l40 -54 47 34 c26 19 98 71 159 116 62 44 114 81 116 81 3 0 16
-18 31 -40 l26 -40 51 36 c27 20 48 42 46 49 -11 28 -191 265 -201 265 -6 -1
-22 -10 -36 -21z"/>
<path d="M986 7623 c-24 -35 -35 -58 -28 -62 67 -41 232 -158 232 -164 0 -5
-3 -6 -7 -4 -5 3 -64 8 -132 12 -69 3 -143 8 -166 11 -40 3 -43 2 -78 -48
l-35 -51 79 -56 c44 -31 138 -98 210 -148 72 -51 135 -93 140 -93 7 0 48 55
72 97 5 7 -34 40 -105 89 -139 95 -136 92 -101 88 15 -1 86 -6 158 -9 71 -4
132 -8 134 -10 9 -10 43 19 70 59 l30 43 -62 45 c-113 82 -365 258 -368 258
-2 -1 -21 -26 -43 -57z"/>
<path d="M8652 7178 c-51 -73 -98 -140 -105 -149 -6 -9 -49 -37 -94 -63 l-82
-47 36 -59 c19 -33 38 -60 41 -60 3 0 39 20 81 44 77 45 92 48 241 60 171 15
205 18 206 19 1 1 -15 32 -35 68 l-36 66 -97 -17 c-54 -8 -98 -13 -98 -10 0 3
27 38 60 79 l60 73 -34 61 c-19 34 -38 63 -43 64 -5 2 -50 -56 -101 -129z"/>
<path d="M703 7098 c-48 -13 -93 -65 -152 -178 -29 -56 -51 -103 -50 -104 6
-5 145 -78 284 -151 72 -37 140 -74 152 -81 25 -15 21 -19 64 61 l27 51 -70
36 -71 36 69 8 c38 4 72 9 77 10 4 1 16 2 27 3 14 1 30 22 56 72 19 39 34 72
32 74 -2 2 -44 -5 -93 -15 -50 -11 -95 -19 -101 -20 -6 0 -14 20 -16 45 -13
109 -125 182 -235 153z m109 -161 c13 -20 9 -57 -9 -87 l-16 -29 -48 25 c-26
13 -50 28 -53 33 -10 15 14 56 42 73 27 17 69 9 84 -15z"/>
<path d="M404 6603 c-10 -27 -24 -59 -31 -73 -7 -14 -13 -29 -13 -35 0 -5 -10
-33 -22 -62 -12 -29 -19 -55 -16 -58 8 -9 460 -185 473 -185 10 0 115 244 115
266 0 8 -93 45 -107 42 -8 -2 -26 -32 -40 -68 -14 -36 -27 -66 -28 -68 -5 -6
-65 21 -65 29 0 5 11 37 25 71 14 34 22 65 18 68 -5 4 -31 16 -60 27 l-51 21
-25 -66 c-23 -61 -27 -67 -52 -65 -15 1 -30 4 -33 7 -4 5 11 51 45 142 3 8
-92 54 -112 54 -2 0 -11 -21 -21 -47z"/>
<path d="M1393 6528 c-137 -266 -244 -546 -319 -843 -26 -102 -26 -102 -49
-230 -20 -113 -22 -126 -30 -191 -4 -33 -9 -68 -11 -79 -2 -11 -7 -70 -10
-132 l-6 -111 791 0 c728 0 791 1 792 16 1 10 3 51 4 92 4 112 15 299 20 350
2 25 7 79 10 120 3 41 10 107 15 145 5 39 12 93 15 120 16 138 77 503 100 595
2 8 11 50 20 93 9 43 19 85 22 93 4 12 -84 14 -666 14 l-671 0 -27 -52z"/>
<path d="M3166 6563 c-4 -9 -9 -32 -12 -52 -3 -20 -8 -39 -11 -44 -2 -4 -6
-19 -9 -33 -3 -14 -12 -56 -20 -93 -9 -36 -18 -77 -20 -91 -2 -14 -7 -38 -11
-55 -9 -40 -8 -33 -18 -90 -5 -27 -9 -52 -10 -55 -3 -12 -16 -87 -20 -115 -2
-16 -9 -64 -15 -105 -17 -112 -20 -141 -26 -190 -2 -25 -6 -63 -9 -85 -2 -22
-7 -71 -10 -110 -3 -38 -8 -92 -10 -120 -3 -27 -8 -125 -11 -217 l-7 -166 792
0 791 0 1 21 c0 30 0 1544 0 1585 l-1 32 -679 0 c-624 0 -679 -1 -685 -17z"/>
<path d="M4929 6528 c-1 -68 -1 -1536 0 -1565 l1 -22 815 1 c751 0 815 1 816
16 2 31 1 67 -5 197 -6 124 -10 179 -21 290 -3 28 -7 75 -10 105 -5 59 -14
139 -20 180 -2 14 -7 45 -10 70 -9 68 -39 252 -51 315 -17 88 -38 189 -49 235
-8 30 -16 66 -18 80 -5 23 -22 93 -33 133 -5 16 -47 17 -710 17 l-704 0 -1
-52z"/>
<path d="M6754 6563 c2 -10 7 -28 11 -40 3 -12 8 -32 10 -45 3 -13 7 -34 10
-48 3 -14 7 -34 9 -45 3 -11 9 -40 15 -65 9 -43 45 -244 57 -320 3 -19 7 -46
9 -60 2 -14 7 -47 10 -75 4 -27 8 -57 10 -65 2 -8 7 -48 10 -89 4 -41 8 -82
10 -91 9 -49 32 -372 40 -570 2 -47 4 -90 4 -97 1 -14 1573 -17 1581 -3 6 9
-12 230 -24 320 -63 438 -180 818 -367 1191 l-59 119 -671 0 c-634 0 -670 -1
-665 -17z"/>
<path d="M8918 6417 c-130 -45 -239 -85 -242 -88 -6 -6 57 -196 80 -241 21
-41 82 -96 122 -109 181 -60 389 86 368 258 -6 52 -74 263 -84 262 -4 0 -114
-37 -244 -82z m183 -124 c6 -16 12 -40 14 -54 10 -82 -124 -157 -209 -117 -23
10 -66 79 -66 105 0 9 211 89 243 92 4 1 12 -11 18 -26z"/>
<path d="M218 6068 l-46 -163 27 -12 c15 -6 43 -14 62 -18 36 -7 36 -7 48 39
6 25 14 46 18 46 3 0 29 -7 57 -15 121 -36 301 -85 312 -85 10 0 51 127 43
134 -2 2 -87 26 -188 55 -102 28 -186 53 -189 55 -2 2 1 13 6 23 5 10 12 30
15 44 6 25 4 27 -51 43 -32 9 -61 16 -63 16 -3 0 -26 -73 -51 -162z"/>
<path d="M8830 5843 c1 -10 7 -43 14 -73 12 -52 15 -55 52 -66 l39 -11 16 -79
16 -79 -31 -19 c-17 -10 -33 -20 -34 -21 -2 -2 2 -30 8 -62 7 -32 13 -64 14
-71 1 -7 6 -12 12 -12 5 0 112 67 237 148 l229 147 -7 50 c-3 27 -9 53 -13 57
-6 6 -100 27 -202 44 -14 3 -70 13 -125 24 -224 45 -225 45 -225 23z m367
-177 c5 -5 -80 -52 -107 -61 -15 -5 -20 -2 -20 12 0 10 -3 29 -7 42 l-6 24 68
-7 c38 -4 70 -8 72 -10z"/>
<path d="M135 5738 c-9 -25 -22 -128 -16 -128 3 0 38 -5 76 -10 39 -6 86 -12
105 -15 19 -3 53 -8 74 -11 l39 -6 -84 -35 c-46 -19 -93 -39 -104 -44 -11 -5
-47 -20 -80 -33 l-60 -24 -11 -61 -11 -60 26 -5 c49 -11 406 -68 454 -73 45
-5 47 -4 47 21 0 14 0 27 0 29 1 1 5 19 9 39 10 41 8 43 -59 52 -72 9 -145 20
-152 22 -5 1 -23 2 -40 3 -44 2 -34 8 132 77 74 31 140 62 147 68 6 6 15 37
18 69 7 51 5 57 -11 58 -24 1 -66 7 -129 19 -27 5 -68 12 -90 15 -23 3 -50 7
-60 9 -11 2 -56 9 -100 16 -44 6 -88 14 -98 16 -9 3 -19 -1 -22 -8z"/>
<path d="M9288 5300 c-162 -92 -173 -95 -306 -103 l-44 -2 6 -55 c3 -30 5 -63
6 -73 0 -15 7 -17 48 -13 128 15 150 11 320 -53 89 -33 164 -61 166 -61 5 0
-3 104 -9 135 -3 17 -22 26 -95 45 -49 13 -90 27 -90 31 0 6 82 45 143 68 27
10 28 13 26 73 -4 109 5 109 -171 8z"/>
<path d="M55 5108 c-2 -7 -6 -40 -7 -74 l-4 -61 66 -2 c36 -2 83 -4 105 -6
137 -11 344 -19 350 -13 2 2 6 33 9 71 l5 67 -37 1 c-20 0 -53 2 -72 4 -19 1
-96 6 -170 9 -74 4 -159 9 -188 12 -37 3 -54 1 -57 -8z"/>
<path d="M14 4443 c4 -60 9 -121 11 -138 2 -16 6 -52 9 -80 11 -99 17 -138 41
-285 36 -214 123 -540 201 -758 138 -383 292 -688 519 -1032 418 -631 985
-1159 1640 -1527 115 -65 421 -211 545 -261 285 -115 671 -227 920 -267 19 -3
46 -7 60 -10 14 -3 41 -7 60 -10 19 -3 46 -7 60 -10 14 -2 52 -7 85 -10 33 -3
71 -8 85 -10 25 -4 163 -16 250 -21 72 -4 428 -4 505 1 88 5 215 15 263 20 62
8 136 17 152 20 8 2 38 6 65 9 178 24 514 103 726 172 100 32 380 138 464 176
660 297 1247 737 1704 1278 94 111 91 108 173 215 94 126 308 444 308 461 0 2
11 22 24 43 81 127 244 476 324 691 79 213 180 560 198 680 3 19 9 51 14 70 5
19 11 53 15 75 3 22 10 65 15 95 12 73 17 112 25 195 4 39 9 77 10 86 2 9 6
66 10 127 l7 112 -315 0 c-174 0 -318 -3 -320 -7 -3 -5 -8 -55 -12 -112 -3
-57 -8 -112 -10 -122 -2 -10 -6 -42 -9 -71 -4 -29 -8 -63 -10 -74 -3 -12 -7
-39 -11 -60 -11 -71 -16 -98 -36 -193 -28 -127 -25 -115 -54 -221 -109 -402
-298 -821 -531 -1176 -21 -32 -41 -61 -44 -64 -3 -3 -23 -32 -45 -65 -22 -32
-78 -107 -124 -165 -303 -380 -655 -694 -1066 -950 -53 -33 -98 -60 -101 -60
-2 0 -23 -12 -46 -26 -138 -88 -489 -242 -724 -320 -152 -50 -434 -124 -534
-139 -25 -4 -54 -9 -65 -11 -24 -5 -214 -31 -270 -38 -162 -19 -492 -25 -675
-12 -186 13 -236 18 -385 42 -16 3 -43 7 -60 10 -26 4 -68 12 -150 28 -11 3
-42 10 -70 16 -27 6 -57 13 -65 15 -115 24 -432 127 -545 176 -185 80 -250
110 -369 172 -263 136 -588 356 -785 531 -600 533 -1012 1158 -1240 1882 -38
119 -92 324 -105 399 -3 17 -8 41 -11 55 -3 14 -7 39 -10 55 -3 17 -7 41 -10
55 -3 14 -7 45 -10 70 -3 25 -8 54 -9 65 -2 11 -7 54 -11 95 -5 41 -9 84 -10
95 -1 11 -3 44 -4 73 l-1 52 -321 0 -322 0 7 -107z"/>
<path d="M974 4478 c12 -143 34 -314 51 -398 2 -14 10 -50 16 -80 36 -185 127
-484 199 -655 33 -79 73 -166 122 -267 l57 -118 671 0 c635 0 671 1 666 18 -3
9 -13 51 -22 92 -9 41 -22 102 -29 136 -7 33 -16 76 -19 95 -3 19 -8 45 -10
59 -8 42 -25 143 -31 180 -3 19 -7 46 -10 60 -5 28 -12 83 -20 150 -3 25 -7
61 -10 80 -8 63 -14 114 -20 195 -4 44 -8 91 -10 105 -5 30 -18 281 -19 363
l-1 57 -793 0 -794 0 6 -72z"/>
<path d="M2954 4403 c4 -82 9 -164 11 -183 2 -19 6 -73 10 -120 3 -47 8 -96
10 -110 2 -14 6 -52 10 -85 9 -83 25 -204 41 -295 2 -14 9 -54 14 -89 23 -140
78 -401 107 -503 l16 -58 678 0 c640 0 679 1 680 18 0 17 0 1535 -1 1560 0 9
-165 12 -791 12 l-792 0 7 -147z"/>
<path d="M4929 4538 c0 -7 -1 -365 -2 -795 l-2 -783 706 0 707 0 22 82 c23 86
94 431 105 508 3 25 8 52 10 60 2 8 7 35 10 60 3 25 8 56 10 70 5 29 12 81 20
160 3 30 8 71 10 90 2 19 7 67 10 105 4 39 8 88 10 110 2 22 7 105 10 185 4
80 9 148 11 152 3 5 -364 8 -815 8 -650 0 -821 -3 -822 -12z"/>
<path d="M6954 4487 c-1 -111 -27 -497 -39 -577 -2 -14 -6 -52 -10 -85 -3 -33
-8 -71 -10 -85 -2 -14 -7 -45 -10 -70 -4 -25 -8 -56 -10 -70 -2 -14 -7 -45
-10 -70 -4 -25 -11 -67 -16 -95 -5 -27 -12 -66 -15 -85 -3 -19 -12 -63 -20
-98 -7 -34 -16 -77 -19 -95 -4 -17 -11 -52 -16 -77 -6 -25 -12 -53 -14 -63 -2
-10 -7 -27 -10 -38 -6 -19 8 -19 665 -19 l671 0 70 143 c115 236 213 501 275
747 15 61 64 310 69 353 3 28 8 64 11 79 6 32 10 71 19 186 l7 82 -794 0 -793
0 -1 -63z"/>
<path d="M1680 2559 c0 -29 237 -308 404 -474 350 -349 754 -622 1206 -813 82
-35 323 -122 337 -122 3 0 -12 19 -32 43 -260 305 -488 713 -653 1172 -27 77
-54 154 -59 170 l-10 30 -596 1 c-357 1 -597 -2 -597 -7z"/>
<path d="M3320 2491 c69 -189 123 -309 253 -566 27 -54 141 -238 185 -300 210
-293 444 -493 681 -584 46 -18 86 -30 88 -27 4 4 7 1349 3 1532 l0 21 -619 0
-620 1 29 -77z"/>
<path d="M4929 2546 c-4 -146 0 -1539 5 -1544 10 -10 172 47 246 86 149 80
329 232 462 392 203 245 399 605 548 1009 l29 78 -645 0 -644 0 -1 -21z"/>
<path d="M6635 2556 c-68 -240 -269 -694 -415 -936 -90 -150 -233 -350 -312
-435 -15 -16 -25 -31 -23 -33 2 -2 25 4 52 13 26 10 80 29 118 42 39 14 84 31
100 38 17 7 48 20 70 29 293 120 622 316 890 530 194 156 350 308 554 541 44
50 161 206 161 214 0 14 -1191 11 -1195 -3z"/>
</g>
</svg>
